<?xml version="1.0" encoding="utf-8"?>
<svg width="370.2681992337165" height="95.88122605363985" viewBox="0 0 69.766 95.924" classname="css-1j8o68f" xmlns="http://www.w3.org/2000/svg">
  <g id="SvgjsG1206" featurekey="Df7oLJ-0" transform="matrix(2.17911877394636,0,0,2.17911877394636,-34.86590038314176,-17.43295019157088)" fill="#ff847c">
    <g xmlns="http://www.w3.org/2000/svg">
      <path d="M43,35V49h-.754A19.95,19.95,0,0,0,33,51.273V40h1a3,3,0,0,0,3-3V35.345A17.974,17.974,0,0,1,40.471,35ZM29,36h6v1a1,1,0,0,1-1,1H30a1,1,0,0,1-1-1Zm3.015-8.135L34.055,31h-4.1Zm-1.183-5.478a1.487,1.487,0,0,1-.1-1.668A1.45,1.45,0,0,1,32,20a1.469,1.469,0,0,1,1.292.759,1.5,1.5,0,0,1-.108,1.682l-1.163,1.772ZM24,22.441V22a8,8,0,1,1,16,0,11.4,11.4,0,0,1-3.849,8.553l-2.939-4.513,1.613-2.458a3.487,3.487,0,0,0,.158-3.895,3.478,3.478,0,1,0-5.778,3.857l1.62,2.49-3.156,4.807A11.489,11.489,0,0,1,24,22.441ZM29,33h6v1H29V33Zm-8,2h2.529A17.974,17.974,0,0,1,27,35.345V37a3,3,0,0,0,3,3h1V51.273A19.95,19.95,0,0,0,21.754,49H21Zm-4,2h2V50a1,1,0,0,0,1,1h1.754a17.95,17.95,0,0,1,5.9,1H17ZM47,52H36.344a17.95,17.95,0,0,1,5.9-1H44a1,1,0,0,0,1-1V36.189l2-.125Z"/>
      <rect x="31" y="8" width="2" height="2"/>
      <rect x="20.394" y="12.394" width="2" height="2" transform="translate(-3.205 19.05) rotate(-45)"/>
      <rect x="16" y="23" width="2" height="2"/>
      <rect x="46" y="23" width="2" height="2"/>
      <rect x="41.607" y="12.394" width="2" height="2" transform="translate(3.008 34.05) rotate(-45)"/>
    </g>
  </g>
</svg>